<svg xmlns="http://www.w3.org/2000/svg" viewBox="0 0 1600 520" role="img" aria-labelledby="title desc">
  <title id="title">SG Couples League horizontal logo</title>
  <desc id="desc">A horizontal SG Couples League logo with a Sterling Grove-inspired golf course scene.</desc>
  <defs>
    <linearGradient id="h-sky" x1="0" y1="0" x2="0" y2="1">
      <stop offset="0" stop-color="#8fb7bf"/>
      <stop offset="0.6" stop-color="#f0d28f"/>
      <stop offset="1" stop-color="#f4e6c9"/>
    </linearGradient>
    <linearGradient id="h-fairway" x1="0" y1="0" x2="0" y2="1">
      <stop offset="0" stop-color="#9bb65a"/>
      <stop offset="0.58" stop-color="#547c3b"/>
      <stop offset="1" stop-color="#1e4628"/>
    </linearGradient>
    <clipPath id="h-clip">
      <rect x="80" y="82" width="488" height="316" rx="40"/>
    </clipPath>
    <style>
      :root {
        --navy: #0b2341;
        --cream: #f2e6cf;
        --sand: #d8bf8d;
        --green: #446f37;
        --deep-green: #173922;
        --mountain: #394758;
        --gold: #d89b3a;
      }

      .navy { fill: var(--navy); }
      .cream { fill: var(--cream); }
      .sand { fill: var(--sand); }
      .mountain { fill: var(--mountain); }
      .deep-green { fill: var(--deep-green); }
      .title {
        font-family: "Montserrat", "Avenir Next", "Helvetica Neue", Arial, sans-serif;
        font-weight: 900;
        letter-spacing: 5px;
      }
      .sub {
        font-family: "Montserrat", "Avenir Next", "Helvetica Neue", Arial, sans-serif;
        font-weight: 800;
        letter-spacing: 6px;
      }
    </style>
  </defs>

  <rect class="navy" x="48" y="50" width="552" height="380" rx="58"/>
  <rect class="cream" x="70" y="72" width="508" height="336" rx="48"/>
  <g clip-path="url(#h-clip)">
    <path fill="url(#h-sky)" d="M80 82h488v316H80z"/>
    <circle class="gold" cx="152" cy="161" r="42"/>
    <path class="mountain" d="M80 229c51-42 91-63 121-63 38 0 54 32 87 32 31 0 50-45 86-45 34 0 54 39 82 39 34 0 61-25 112-8v83H80Z"/>
    <path class="deep-green" d="M80 261c78-23 159-35 244-35 86 0 168 13 244 38v134H80Z"/>
    <path fill="url(#h-fairway)" d="M184 398c22-75 69-130 140-164 71 34 118 89 140 164H184Z"/>
    <path fill="#7fa64a" d="M259 398c11-62 33-115 65-158 32 43 54 96 65 158H259Z"/>
    <path class="sand" d="M149 339c52-17 88-10 108 19-33 27-74 32-123 14 2-14 7-25 15-33Z"/>
    <path class="sand" d="M429 322c48-12 83-4 104 24-29 25-69 29-117 13 2-16 6-28 13-37Z"/>
    <path class="deep-green" d="M126 262c-12-38 12-65 44-48 31 17 22 62-14 74-15-5-25-13-30-26Z"/>
    <path class="deep-green" d="M507 262c12-38-12-65-44-48-31 17-22 62 14 74 15-5 25-13 30-26Z"/>
  </g>
  <rect x="80" y="82" width="488" height="316" rx="40" fill="none" stroke="#0b2341" stroke-width="16"/>

  <text class="title navy" x="678" y="220" font-size="108">SG COUPLES</text>
  <text class="sub navy" x="684" y="309" font-size="50">LEAGUE</text>
  <path d="M684 346h620" fill="none" stroke="#0b2341" stroke-width="10" stroke-linecap="round"/>
</svg>
