<svg width="96" height="96" viewBox="0 0 96 96" fill="none" xmlns="http://www.w3.org/2000/svg">
  <defs>
    <radialGradient id="blackBall" cx="32%" cy="24%" r="70%">
      <stop offset="0" stop-color="#6f7470"/>
      <stop offset="0.36" stop-color="#242724"/>
      <stop offset="0.76" stop-color="#080908"/>
      <stop offset="1" stop-color="#010101"/>
    </radialGradient>
    <radialGradient id="blackAura" cx="50%" cy="50%" r="52%">
      <stop offset="0.42" stop-color="#111411" stop-opacity="0.8"/>
      <stop offset="1" stop-color="#111411" stop-opacity="0"/>
    </radialGradient>
    <filter id="blackShadow" x="-35%" y="-35%" width="170%" height="170%">
      <feDropShadow dx="0" dy="6" stdDeviation="5" flood-color="#000000" flood-opacity="0.62"/>
    </filter>
  </defs>
  <circle cx="48" cy="49" r="43" fill="url(#blackAura)"/>
  <circle cx="48" cy="48" r="30" fill="url(#blackBall)" filter="url(#blackShadow)"/>
  <g opacity="0.28" fill="#b7beb7">
    <circle cx="36" cy="31" r="3"/>
    <circle cx="48" cy="28" r="2.7"/>
    <circle cx="59" cy="33" r="2.4"/>
    <circle cx="32" cy="43" r="2.6"/>
    <circle cx="45" cy="43" r="2.2"/>
    <circle cx="58" cy="46" r="2.5"/>
    <circle cx="39" cy="56" r="2.3"/>
    <circle cx="52" cy="58" r="2"/>
    <circle cx="62" cy="60" r="2.2"/>
  </g>
  <path d="M31 68c10 12 25 12 36 1" stroke="#000" stroke-width="5" stroke-linecap="round" opacity="0.34"/>
  <path d="M27 26c-5 5-8 12-9 20" stroke="#191d19" stroke-width="5" stroke-linecap="round" opacity="0.82"/>
  <path d="M72 20c5 6 8 13 8 22" stroke="#191d19" stroke-width="5" stroke-linecap="round" opacity="0.82"/>
</svg>
