<svg width="96" height="96" viewBox="0 0 96 96" fill="none" xmlns="http://www.w3.org/2000/svg">
  <defs>
    <radialGradient id="goldBall" cx="35%" cy="28%" r="64%">
      <stop offset="0" stop-color="#fff7b8"/>
      <stop offset="0.34" stop-color="#f8d64e"/>
      <stop offset="0.68" stop-color="#d99d19"/>
      <stop offset="1" stop-color="#8c5d0c"/>
    </radialGradient>
    <radialGradient id="goldGlow" cx="50%" cy="50%" r="50%">
      <stop offset="0.25" stop-color="#ffe66d" stop-opacity="0.9"/>
      <stop offset="1" stop-color="#ffe66d" stop-opacity="0"/>
    </radialGradient>
    <filter id="goldShadow" x="-30%" y="-30%" width="160%" height="160%">
      <feDropShadow dx="0" dy="5" stdDeviation="5" flood-color="#865a05" flood-opacity="0.42"/>
    </filter>
  </defs>
  <circle cx="48" cy="48" r="45" fill="url(#goldGlow)"/>
  <circle cx="48" cy="48" r="30" fill="url(#goldBall)" filter="url(#goldShadow)"/>
  <g opacity="0.34" fill="#fff8cf">
    <circle cx="36" cy="31" r="3"/>
    <circle cx="48" cy="28" r="2.7"/>
    <circle cx="59" cy="33" r="2.4"/>
    <circle cx="32" cy="43" r="2.6"/>
    <circle cx="45" cy="43" r="2.2"/>
    <circle cx="58" cy="46" r="2.5"/>
    <circle cx="39" cy="56" r="2.3"/>
    <circle cx="52" cy="58" r="2"/>
    <circle cx="62" cy="60" r="2.2"/>
  </g>
  <path d="M32 23 36 31 45 33 37 37 36 46 31 38 22 37 30 32Z" fill="#fff8b8" opacity="0.88"/>
  <path d="M67 18 70 24 76 26 70 29 68 36 65 29 58 27 65 24Z" fill="#fff0a6" opacity="0.72"/>
  <path d="M70 62 72 67 78 68 73 71 72 77 68 72 62 71 67 68Z" fill="#fff0a6" opacity="0.68"/>
</svg>
